# xmcd CD database file
# Copyright (C) 1993-1998 Ti Kan
#
# Track frame offsets:
#    182
#    12980
#    31090
#    48170
#    66225
#    79610
#    100512
#    115850
#    131267
#    148085
#
# Disc length: 2143 seconds
#
# Revision: 4
# Processed by: cddbd v1.4b41PL1 Copyright (c) Steve Scherf et al.
# Submitted via: MyCDplayer 2.4.5  (wjohn@am-woljo.com)
#
DISCID=75085d0a
DTITLE=Ray Stevens - 
DTITLE=Classic Ray Stevens
DYEAR=1900
DGENRE=
TTITLE0=If Ten Percent Is Good Enough For Jesus (It O
TTITLE1=The Higher Education of Old Blue
TTITLE2=The Bricklayer's Song
TTITLE3=Little League
TTITLE4=Meanwhile
TTITLE5=Super Cop
TTITLE6=If You And Yo' Folks Like Me And My Folks
TTITLE7=The All-American Two Week Summer Family Vacat
TTITLE8=The Ballad of Jake McClusky
TTITLE9=The Motel Song
EXTD=
EXTT0=
EXTT1=
EXTT2=
EXTT3=
EXTT4=
EXTT5=
EXTT6=
EXTT7=
EXTT8=
EXTT9=
PLAYORDER=
